<svg width="119" height="36" viewBox="0 0 119 36" fill="none" xmlns="http://www.w3.org/2000/svg">
<path fill-rule="evenodd" clip-rule="evenodd" d="M1.80099 0H65.4621C66.4567 0 67.263 0.806329 67.263 1.80099V34.199C67.263 35.1937 66.4567 36 65.4621 36H1.80099C0.806329 36 0 35.1937 0 34.199V1.80099C0 0.806329 0.806329 0 1.80099 0Z" fill="#16A974"/>
<path fill-rule="evenodd" clip-rule="evenodd" d="M11.8541 9.56847C11.862 11.1409 10.5931 12.4177 9.02065 12.4256L9.02459 12.4296H9.01277C7.44036 12.4177 6.17533 11.133 6.18715 9.56058V9.52906C6.19504 7.97241 7.464 6.71921 9.02065 6.72709H9.05218C10.6088 6.73497 11.862 8.00393 11.8541 9.56058V9.56847ZM11.4995 13.8089V29.3675H6.53789V13.8089H11.4995ZM30.6009 29.3675V18.3527C30.6009 15.4877 28.9891 13.4227 25.4463 13.4227C23.4049 13.3675 21.4423 14.2029 20.067 15.7084V13.8089H15.1054V29.3675H20.067V19.3182C20.7881 18.3724 21.9034 17.8128 23.0936 17.8049C24.6384 17.8049 25.6394 18.4828 25.6394 20.3823V29.3675H30.6009ZM40.2325 18.1241V29.3675L40.2285 29.3635H35.2709V18.1202H32.6936V13.801H35.2709V13.0286C35.263 12.8512 35.263 12.6778 35.2748 12.5005C35.4482 9.59999 37.9389 7.38127 40.8433 7.55467C41.9822 7.52709 43.1054 7.76748 44.13 8.26403L43.2315 11.6453C42.8374 11.4246 42.3921 11.3143 41.9428 11.3222C41.8404 11.3182 41.7418 11.3222 41.6394 11.334C40.7448 11.4483 40.1182 12.268 40.2325 13.1586V13.8049H43.3891V18.1241H40.2325ZM52.8906 29.7537C58.2384 29.7537 61.395 25.9547 61.395 21.5724C61.395 17.1901 58.2384 13.4227 52.8906 13.4227C47.5428 13.4227 44.4177 17.1901 44.4177 21.5724C44.4177 25.9547 47.6098 29.7537 52.8906 29.7537ZM52.8906 25.3754C50.731 25.3754 49.5408 23.665 49.5408 21.5764C49.5408 19.4877 50.731 17.8089 52.8906 17.8089C55.0502 17.8089 56.3034 19.5192 56.3034 21.5764C56.3034 23.669 55.0817 25.3754 52.8906 25.3754Z" fill="white"/>
<path d="M87.401 29.3674V18.3527C87.401 15.4876 85.7892 13.4226 82.2463 13.4226C80.2049 13.3674 78.2424 14.2029 76.867 15.7083V13.8088H71.9015V29.3674H76.867V19.3182C77.5882 18.3724 78.7035 17.8128 79.8936 17.8049C81.4384 17.8049 82.4394 18.4827 82.4394 20.3822V29.3674H87.401ZM98.4828 29.7537C100.824 29.8364 103.125 29.1113 104.989 27.6926L102.897 24.599C101.781 25.4384 100.426 25.8995 99.0306 25.9192C96.7764 25.9192 95.4246 24.599 95.133 23.1487H106.215V22.0886C106.215 16.8078 102.865 13.4226 98.2581 13.4226C93.8246 13.2847 90.1202 16.7645 89.9823 21.194C89.9783 21.3202 89.9783 21.4463 89.9823 21.5724C89.9823 26.6285 93.6907 29.7537 98.4867 29.7537H98.4828ZM101.478 19.929H95.07C95.2749 18.3448 96.6621 17.1822 98.2581 17.2571C99.8818 17.1231 101.312 18.3093 101.478 19.929ZM114.554 29.7537C115.862 29.8679 117.167 29.5014 118.227 28.7251L117.265 24.9891C116.902 25.261 116.457 25.399 116.004 25.3753C115.224 25.3674 114.601 24.729 114.609 23.9487C114.609 23.8975 114.609 23.8463 114.621 23.795V18.1241H117.777V13.8049H114.621V9.56055H109.691V13.8128H107.113V18.132H109.691V25.1862C109.691 28.1773 111.397 29.7576 114.554 29.7576V29.7537Z" fill="#283136"/>
</svg>
